<svg width="24" height="24" viewBox="0 0 24 24" fill="none" xmlns="http://www.w3.org/2000/svg">
<path d="M11.9727 13.8846C10.9184 13.8846 10.0607 13.0269 10.0607 11.9727C10.0607 10.9184 10.9184 10.0607 11.9727 10.0607C13.0269 10.0607 13.8846 10.9184 13.8846 11.9727C13.8846 13.0269 13.0269 13.8846 11.9727 13.8846ZM11.9727 11.1533C11.5209 11.1533 11.1533 11.5209 11.1533 11.9727C11.1533 12.4245 11.5209 12.7921 11.9727 12.7921C12.4245 12.7921 12.7921 12.4245 12.7921 11.9727C12.7921 11.5209 12.4245 11.1533 11.9727 11.1533ZM8.64432 14.0993L6.54507 12L8.64432 9.90074L7.87179 9.12821L5 12L7.87179 14.8718L8.64432 14.0993ZM14.8718 16.1282L14.0993 15.3557L12 17.4549L9.98268 15.4376L9.21015 16.2101L12 19L14.8718 16.1282ZM19 12L16.2101 9.21015L15.4376 9.98268L17.4549 12L15.4103 14.0446L16.1828 14.8172L19 12ZM14.8718 7.87179L12 5L9.18284 7.81716L9.95537 8.5897L12 6.54507L14.0993 8.64432L14.8718 7.87179Z" fill="black"/>
</svg>
