<svg width="24" height="24" viewBox="0 0 24 24" fill="none" xmlns="http://www.w3.org/2000/svg">
<path d="M8.7689 14.4702C8.7628 14.4402 8.7539 14.4107 8.74218 14.3826C8.73046 14.354 8.71593 14.3268 8.69905 14.3015C8.68171 14.2757 8.66202 14.2518 8.64046 14.2302C8.53171 14.1215 8.36999 14.0713 8.21765 14.1023C8.18765 14.1084 8.15811 14.1173 8.12999 14.129C8.1014 14.1407 8.07421 14.1552 8.0489 14.1721C8.02311 14.189 7.99921 14.2087 7.97765 14.2302C7.95608 14.2518 7.9364 14.2757 7.91952 14.3015C7.90265 14.3268 7.88811 14.354 7.8764 14.3826C7.86468 14.4107 7.85577 14.4402 7.84968 14.4702C7.84358 14.5002 7.8403 14.5312 7.8403 14.5616C7.8403 14.5921 7.84358 14.6231 7.84968 14.6535C7.85577 14.6831 7.86468 14.7126 7.8764 14.7412C7.88811 14.7693 7.90265 14.7965 7.91952 14.8218C7.9364 14.8476 7.95608 14.8715 7.97765 14.8931C7.99921 14.9146 8.02311 14.9343 8.0489 14.9516C8.07421 14.9685 8.1014 14.9831 8.12999 14.9948C8.15811 15.0065 8.18765 15.0154 8.21765 15.0215C8.24765 15.0276 8.27858 15.0304 8.30905 15.0304C8.43233 15.0304 8.55327 14.9802 8.64046 14.8931C8.66202 14.8715 8.68171 14.8476 8.69905 14.8218C8.71593 14.7965 8.73046 14.7693 8.74218 14.7412C8.7539 14.7126 8.7628 14.6831 8.7689 14.6535C8.77499 14.6231 8.7778 14.5921 8.7778 14.5616C8.7778 14.5312 8.77499 14.5002 8.7689 14.4702Z" fill="black"/>
<path d="M23.5312 22.5649H22.5603V17.5519V15.4962C22.5603 14.7225 21.9308 14.0931 21.1571 14.0931H20.3566V11.2571V9.46934C20.3566 8.69567 19.7272 8.06618 18.9535 8.06618H17.5145V6.70522C17.8361 6.62403 18.1405 6.45823 18.3915 6.20717C18.9686 5.63014 19.1137 4.75081 18.7524 4.01895L17.4661 1.41293C17.3871 1.25295 17.2242 1.15165 17.0458 1.15165C16.8674 1.15165 16.7044 1.25295 16.6254 1.41293L15.3391 4.019C14.9779 4.75076 15.1229 5.63014 15.7 6.20721C15.951 6.45828 16.2555 6.62407 16.577 6.70526V8.06623H12.4688V6.05117C12.7903 5.96998 13.0947 5.80418 13.3458 5.55312C13.9229 4.97609 14.0678 4.09676 13.7067 3.3649L12.4203 0.75884C12.3413 0.598855 12.1784 0.497559 12 0.497559C11.8216 0.497559 11.6587 0.598855 11.5797 0.75884L10.2933 3.36495C9.93216 4.09676 10.0772 4.97609 10.6542 5.55312C10.9053 5.80418 11.2097 5.96998 11.5312 6.05117V8.06623H7.42298V6.70672C7.75205 6.62375 8.05383 6.4534 8.30002 6.20721C8.87709 5.63018 9.02213 4.75081 8.66091 4.019L7.37456 1.41293C7.29558 1.25295 7.13264 1.15165 6.95423 1.15165C6.77583 1.15165 6.61289 1.25295 6.53391 1.41293L5.24756 4.01904C4.88639 4.75081 5.03142 5.63018 5.60845 6.20726C5.85464 6.45345 6.15642 6.62379 6.48548 6.70676V8.06628H5.04652C4.2728 8.06628 3.64336 8.69572 3.64336 9.46943V11.2572V14.0932H2.84287C2.06916 14.0932 1.43972 14.7226 1.43972 15.4963V17.552V22.565H0.46875C0.209859 22.565 0 22.7749 0 23.0338C0 23.2927 0.209859 23.5025 0.46875 23.5025H1.90847H22.0915H23.5312C23.7901 23.5025 24 23.2927 24 23.0338C24 22.7749 23.7901 22.5649 23.5312 22.5649ZM16.3629 5.54421C16.0701 5.25143 15.9965 4.80523 16.1798 4.43389L17.0458 2.6794L17.9118 4.43389C18.0951 4.80523 18.0215 5.25143 17.7287 5.54421C17.6637 5.60923 17.5913 5.66225 17.5146 5.70481C17.2239 5.86615 16.8678 5.86615 16.5771 5.70481C16.5003 5.66229 16.4279 5.60928 16.3629 5.54421ZM11.3171 4.89017C11.0243 4.59739 10.9508 4.15118 11.134 3.77984L12 2.0254L12.866 3.77989C13.0493 4.15123 12.9757 4.59743 12.6829 4.89021C12.6179 4.95523 12.5455 5.00825 12.4688 5.05081C12.1782 5.21215 11.822 5.21215 11.5313 5.05081C11.4546 5.0082 11.3821 4.95523 11.3171 4.89017ZM6.27136 5.54421C5.97853 5.25143 5.90498 4.80523 6.08827 4.43389L6.95428 2.6794L7.8203 4.43389C8.00358 4.80518 7.92998 5.25139 7.6372 5.54421C7.57219 5.60923 7.49977 5.66225 7.42308 5.70481C7.13245 5.86615 6.77625 5.86615 6.48558 5.70481C6.4088 5.66229 6.33638 5.60928 6.27136 5.54421ZM5.04652 9.00368H18.9535C19.2103 9.00368 19.4192 9.21256 19.4192 9.46934V10.941C19.2127 11.0059 18.9901 11.0358 18.7275 11.0358C18.0285 11.0358 17.7094 10.8231 17.3055 10.5538C16.856 10.2541 16.3464 9.91446 15.3635 9.91446C14.3806 9.91446 13.8711 10.2541 13.4216 10.5538C13.0177 10.8231 12.6987 11.0358 11.9997 11.0358C11.3006 11.0358 10.9816 10.8231 10.5778 10.5538C10.1283 10.2542 9.6188 9.91446 8.63592 9.91446C7.65309 9.91446 7.14361 10.2542 6.69408 10.5538C6.29025 10.8231 5.97127 11.0358 5.27231 11.0358C5.00981 11.0358 4.78739 11.0059 4.58091 10.9411V9.46934H4.58086C4.58086 9.21256 4.78978 9.00368 5.04652 9.00368ZM21.6228 22.5649H2.37722V18.0598C2.77575 18.1332 3.02962 18.3021 3.33033 18.5026C3.77986 18.8023 4.28934 19.1419 5.27227 19.1419C6.25509 19.1419 6.76458 18.8022 7.21411 18.5026C7.61794 18.2333 7.93692 18.0207 8.63587 18.0207C9.33487 18.0207 9.65391 18.2333 10.0577 18.5026C10.5073 18.8023 11.0168 19.1419 11.9996 19.1419C12.9825 19.1419 13.492 18.8022 13.9416 18.5026C14.3454 18.2333 14.6644 18.0207 15.3635 18.0207C16.0626 18.0207 16.3816 18.2333 16.7855 18.5026C17.235 18.8022 17.7445 19.1419 18.7275 19.1419C19.7104 19.1419 20.22 18.8022 20.6695 18.5026C20.9703 18.3021 21.2242 18.1331 21.6228 18.0598V22.5649ZM21.6228 17.1115C20.9345 17.1992 20.5215 17.4745 20.1495 17.7225C19.7456 17.9917 19.4266 18.2044 18.7275 18.2044C18.0284 18.2044 17.7094 17.9917 17.3055 17.7225C16.8559 17.4228 16.3464 17.0831 15.3635 17.0831C14.3806 17.0831 13.8711 17.4228 13.4215 17.7225C13.0177 17.9917 12.6987 18.2044 11.9996 18.2044C11.3006 18.2044 10.9816 17.9917 10.5778 17.7225C10.1282 17.4228 9.61875 17.0831 8.63583 17.0831C7.653 17.0831 7.14352 17.4228 6.69398 17.7225C6.29016 17.9917 5.97117 18.2044 5.27222 18.2044C4.57317 18.2044 4.25419 17.9917 3.85036 17.7225C3.47841 17.4745 3.06544 17.1992 2.37722 17.1115V15.4962C2.37722 15.2394 2.58614 15.0305 2.84287 15.0305H6.4403C6.69919 15.0305 6.90905 14.8207 6.90905 14.5618C6.90905 14.3029 6.69919 14.093 6.4403 14.093H4.58086V11.9072C4.79658 11.9513 5.02448 11.9733 5.27227 11.9733C6.25509 11.9733 6.76458 11.6336 7.21411 11.3339C7.61794 11.0647 7.93692 10.852 8.63587 10.852C9.33492 10.852 9.65391 11.0647 10.0577 11.3339C10.5073 11.6336 11.0168 11.9733 11.9996 11.9733C12.9825 11.9733 13.492 11.6336 13.9416 11.3339C14.3454 11.0647 14.6644 10.852 15.3635 10.852C16.0626 10.852 16.3816 11.0647 16.7855 11.3339C17.235 11.6337 17.7446 11.9733 18.7275 11.9733C18.9754 11.9733 19.2034 11.9513 19.4191 11.9072V14.0931H10.1779C9.91903 14.0931 9.70917 14.3029 9.70917 14.5618C9.70917 14.8207 9.91903 15.0306 10.1779 15.0306H21.1571C21.4139 15.0306 21.6228 15.2395 21.6228 15.4962V17.1115Z" fill="black"/>
<path d="M4.57174 21.4002C4.56565 21.3702 4.55674 21.3407 4.54502 21.3126C4.5333 21.2845 4.51877 21.2573 4.5019 21.2315C4.48455 21.2062 4.46533 21.1823 4.4433 21.1602C4.42174 21.1387 4.39783 21.1195 4.37205 21.1021C4.34674 21.0852 4.31955 21.0707 4.29143 21.059C4.2633 21.0473 4.23377 21.0384 4.20377 21.0323C4.05143 21.0018 3.88971 21.0515 3.78049 21.1602C3.75893 21.1823 3.73924 21.2062 3.72237 21.2315C3.70549 21.2573 3.69096 21.2845 3.67924 21.3126C3.66752 21.3407 3.65862 21.3702 3.65252 21.4002C3.64643 21.4307 3.64362 21.4612 3.64362 21.4921C3.64362 21.5226 3.64643 21.5531 3.65252 21.5835C3.65862 21.6135 3.66752 21.6431 3.67924 21.6712C3.69096 21.6993 3.70549 21.7265 3.72237 21.7523C3.73924 21.7776 3.75893 21.8015 3.78049 21.8235C3.86768 21.9107 3.98862 21.9609 4.11237 21.9609C4.14283 21.9609 4.1733 21.9576 4.20377 21.9515C4.23377 21.9454 4.2633 21.9365 4.29143 21.9248C4.31955 21.9131 4.34674 21.8985 4.37205 21.8817C4.39783 21.8643 4.42174 21.8451 4.4433 21.8235C4.46533 21.8015 4.48455 21.7776 4.5019 21.7523C4.51877 21.7265 4.5333 21.6993 4.54502 21.6712C4.55674 21.6431 4.56565 21.6135 4.57174 21.5835C4.57783 21.5531 4.58112 21.5226 4.58112 21.4921C4.58112 21.4612 4.57783 21.4308 4.57174 21.4002Z" fill="black"/>
<path d="M9.60984 19.9987C9.60374 19.9687 9.59484 19.9392 9.58312 19.911C9.5714 19.8829 9.55687 19.8557 9.53999 19.8299C9.52265 19.8046 9.50296 19.7803 9.4814 19.7587C9.45984 19.7371 9.43593 19.7174 9.41015 19.7006C9.38484 19.6837 9.35765 19.6692 9.32953 19.6574C9.30093 19.6457 9.2714 19.6368 9.24187 19.6307C9.1814 19.6185 9.11906 19.6185 9.05859 19.6307C9.02859 19.6368 8.99906 19.6457 8.97093 19.6574C8.94234 19.6692 8.91515 19.6837 8.88984 19.7006C8.86406 19.7174 8.84015 19.7371 8.81859 19.7587C8.79703 19.7803 8.77734 19.8046 8.76046 19.8299C8.74359 19.8557 8.72906 19.8829 8.71734 19.911C8.70562 19.9392 8.69671 19.9687 8.69062 19.9987C8.68453 20.0292 8.68124 20.0596 8.68124 20.0901C8.68124 20.121 8.68453 20.1515 8.69062 20.182C8.69671 20.212 8.70562 20.2415 8.71734 20.2696C8.72906 20.2977 8.74359 20.3249 8.76046 20.3507C8.77734 20.376 8.79703 20.4004 8.81859 20.422C8.84015 20.4435 8.86406 20.4627 8.88984 20.4801C8.91515 20.497 8.94234 20.5115 8.97093 20.5232C8.99906 20.5349 9.02859 20.5438 9.05859 20.5499C9.08859 20.556 9.11953 20.5593 9.14999 20.5593C9.18046 20.5593 9.2114 20.556 9.24187 20.5499C9.2714 20.5438 9.30093 20.5349 9.32953 20.5232C9.35765 20.5115 9.38484 20.497 9.41015 20.4801C9.43593 20.4627 9.45984 20.4435 9.4814 20.422C9.50296 20.4004 9.52265 20.376 9.53999 20.3507C9.55687 20.3249 9.5714 20.2977 9.58312 20.2696C9.59484 20.2415 9.60374 20.212 9.60984 20.182C9.61593 20.1515 9.61874 20.121 9.61874 20.0901C9.61874 20.0596 9.61593 20.0292 9.60984 19.9987Z" fill="black"/>
<path d="M15.0291 21.4002C15.023 21.3702 15.0141 21.3406 15.0024 21.3125C14.9906 21.2844 14.9761 21.2572 14.9592 21.2314C14.9424 21.2061 14.9227 21.1822 14.9011 21.1602C14.8795 21.1386 14.8556 21.1194 14.8299 21.1021C14.8045 21.0852 14.7774 21.0706 14.7488 21.0589C14.7206 21.0472 14.6911 21.0383 14.6611 21.0322C14.6006 21.02 14.5383 21.02 14.4778 21.0322C14.4483 21.0383 14.4188 21.0472 14.3902 21.0589C14.362 21.0706 14.3349 21.0852 14.3095 21.1021C14.2838 21.1194 14.2599 21.1386 14.2383 21.1602C14.2167 21.1822 14.197 21.2061 14.1797 21.2314C14.1628 21.2572 14.1483 21.2844 14.1366 21.3125C14.1249 21.3406 14.116 21.3702 14.1099 21.4002C14.1038 21.4306 14.101 21.4611 14.101 21.4921C14.101 21.5225 14.1038 21.553 14.1099 21.5835C14.116 21.6135 14.1249 21.643 14.1366 21.6711C14.1483 21.6992 14.1628 21.7264 14.1797 21.7522C14.197 21.7775 14.2167 21.8019 14.2383 21.8235C14.2599 21.845 14.2838 21.8647 14.3095 21.8816C14.3349 21.8985 14.362 21.913 14.3902 21.9247C14.4188 21.9364 14.4483 21.9453 14.4778 21.9514C14.5083 21.9575 14.5392 21.9608 14.5697 21.9608C14.693 21.9608 14.8139 21.9106 14.9011 21.8235C14.9227 21.8019 14.9424 21.7775 14.9592 21.7522C14.9761 21.7264 14.9906 21.6992 15.0024 21.6711C15.0141 21.643 15.023 21.6135 15.0291 21.5835C15.0352 21.553 15.0385 21.5225 15.0385 21.4921C15.0385 21.4611 15.0352 21.4306 15.0291 21.4002Z" fill="black"/>
<path d="M20.3475 20.279C20.3414 20.249 20.3325 20.2194 20.3208 20.1913C20.3091 20.1632 20.2945 20.1355 20.2777 20.1102C20.2608 20.0849 20.2411 20.0605 20.2195 20.039C20.1319 19.9518 20.0114 19.9016 19.8881 19.9016C19.7644 19.9016 19.6439 19.9518 19.5562 20.039C19.5347 20.0605 19.5155 20.0849 19.4981 20.1102C19.4812 20.1355 19.4667 20.1632 19.455 20.1913C19.4433 20.2194 19.4344 20.249 19.4283 20.279C19.4222 20.309 19.4194 20.3399 19.4194 20.3704C19.4194 20.4013 19.4222 20.4318 19.4283 20.4622C19.4344 20.4922 19.4433 20.5218 19.455 20.5499C19.4667 20.578 19.4812 20.6052 19.4981 20.6305C19.5155 20.6563 19.5347 20.6802 19.5562 20.7022C19.5783 20.7238 19.6022 20.743 19.6275 20.7604C19.6533 20.7772 19.6805 20.7918 19.7086 20.8035C19.7367 20.8152 19.7662 20.8241 19.7962 20.8302C19.8267 20.8363 19.8572 20.8391 19.8881 20.8391C20.0114 20.8391 20.1323 20.7894 20.2195 20.7022C20.2411 20.6802 20.2608 20.6563 20.2777 20.6305C20.2945 20.6052 20.3091 20.578 20.3208 20.5499C20.3325 20.5213 20.3414 20.4922 20.3475 20.4622C20.3536 20.4318 20.3569 20.4013 20.3569 20.3704C20.3569 20.3398 20.3536 20.309 20.3475 20.279Z" fill="black"/>
<path d="M15.6834 12.6169C15.6774 12.5873 15.6684 12.5578 15.6567 12.5292C15.645 12.5011 15.6305 12.4739 15.6136 12.4486C15.5963 12.4228 15.5766 12.3989 15.555 12.3773C15.5334 12.3553 15.5095 12.3361 15.4838 12.3187C15.4584 12.3019 15.4313 12.2873 15.4031 12.2756C15.3745 12.2639 15.345 12.255 15.3155 12.2489C15.255 12.2367 15.1927 12.2367 15.1322 12.2489C15.1022 12.255 15.0727 12.2639 15.0445 12.2756C15.0159 12.2873 14.9888 12.3019 14.9634 12.3187C14.9377 12.3361 14.9138 12.3553 14.8922 12.3773C14.8706 12.3989 14.8509 12.4228 14.8341 12.4486C14.8172 12.4739 14.8027 12.5011 14.7909 12.5292C14.7792 12.5578 14.7703 12.5873 14.7642 12.6169C14.7581 12.6473 14.7549 12.6783 14.7549 12.7087C14.7549 12.7392 14.7581 12.7701 14.7642 12.8001C14.7703 12.8301 14.7792 12.8597 14.7909 12.8878C14.8027 12.9159 14.8172 12.9436 14.8341 12.9689C14.8509 12.9947 14.8706 13.0186 14.8922 13.0401C14.9138 13.0617 14.9377 13.0814 14.9634 13.0983C14.9888 13.1151 15.0159 13.1297 15.0445 13.1414C15.0727 13.1531 15.1022 13.162 15.1322 13.1681C15.1622 13.1742 15.1931 13.1775 15.2236 13.1775C15.2541 13.1775 15.285 13.1742 15.3155 13.1681C15.345 13.162 15.3745 13.1531 15.4031 13.1414C15.4313 13.1297 15.4584 13.1151 15.4838 13.0983C15.5095 13.0814 15.5334 13.0617 15.555 13.0401C15.5766 13.0186 15.5963 12.9947 15.6136 12.9689C15.6305 12.9436 15.645 12.9159 15.6567 12.8878C15.6684 12.8597 15.6774 12.8301 15.6834 12.8001C15.6895 12.7701 15.6924 12.7392 15.6924 12.7087C15.6924 12.6783 15.6895 12.6473 15.6834 12.6169Z" fill="black"/>
<path d="M9.56295 11.9784C9.55686 11.9484 9.54795 11.9189 9.53623 11.8908C9.52451 11.8626 9.50998 11.8355 9.49311 11.8097C9.47623 11.7844 9.45655 11.76 9.43498 11.7384C9.41342 11.7169 9.38904 11.6972 9.36373 11.6803C9.33795 11.6634 9.31076 11.6489 9.28264 11.6372C9.25451 11.6255 9.22498 11.6166 9.19498 11.6105C9.13451 11.5983 9.07217 11.5983 9.0117 11.6105C8.9817 11.6166 8.95217 11.6255 8.92405 11.6372C8.89592 11.6489 8.86873 11.6634 8.84295 11.6803C8.81764 11.6972 8.79373 11.7169 8.7717 11.7384C8.75014 11.76 8.73092 11.7844 8.71358 11.8097C8.6967 11.8355 8.68217 11.8626 8.67045 11.8908C8.65873 11.9189 8.64983 11.9484 8.64373 11.9784C8.63764 12.0089 8.63483 12.0394 8.63483 12.0703C8.63483 12.1008 8.63764 12.1312 8.64373 12.1617C8.64983 12.1917 8.65873 12.2212 8.67045 12.2494C8.68217 12.2775 8.6967 12.3047 8.71358 12.3305C8.73092 12.3558 8.75014 12.3797 8.7717 12.4017C8.79373 12.4233 8.81764 12.4425 8.84295 12.4598C8.86873 12.4767 8.89592 12.4912 8.92405 12.503C8.95217 12.5147 8.9817 12.5236 9.0117 12.5297C9.04217 12.5358 9.07264 12.539 9.10358 12.539C9.13405 12.539 9.16498 12.5358 9.19498 12.5297C9.22498 12.5236 9.25451 12.5147 9.28264 12.503C9.31076 12.4912 9.33795 12.4767 9.36373 12.4598C9.38904 12.4425 9.41342 12.4233 9.43498 12.4017C9.45655 12.3797 9.47576 12.3558 9.49311 12.3305C9.50998 12.3047 9.52451 12.2775 9.53623 12.2494C9.54795 12.2212 9.55686 12.1917 9.56295 12.1617C9.56904 12.1312 9.57186 12.1008 9.57186 12.0703C9.57186 12.0393 9.56904 12.0088 9.56295 11.9784Z" fill="black"/>
</svg>
