<svg width="14" height="14" viewBox="0 0 14 14" fill="none" xmlns="http://www.w3.org/2000/svg">
<path d="M7 0C3.1402 0 0 3.1402 0 7C0 10.8598 3.1402 14 7 14C10.8598 14 14 10.8598 14 7C14 3.1402 10.8598 0 7 0ZM7 13.3636C3.49103 13.3636 0.636364 10.5089 0.636364 7C0.636364 3.49109 3.49103 0.636364 7 0.636364C10.509 0.636364 13.3636 3.49109 13.3636 7C13.3636 10.5089 10.509 13.3636 7 13.3636Z" fill="black"/>
<path d="M7 1.24091C3.82441 1.24091 1.24091 3.82441 1.24091 7C1.24091 10.1756 3.82441 12.7591 7 12.7591C10.1756 12.7591 12.7591 10.1756 12.7591 7C12.7591 3.82441 10.1756 1.24091 7 1.24091ZM7 12.5682C3.92967 12.5682 1.43181 10.0703 1.43181 7C1.43181 3.92967 3.92967 1.43181 7 1.43181C10.0703 1.43181 12.5682 3.92967 12.5682 7C12.5682 10.0703 10.0703 12.5682 7 12.5682Z" fill="black"/>
<path d="M6.42728 9.22036C5.63742 8.89702 5.06985 8.02406 5.06985 7.00002C5.06985 5.97598 5.63742 5.10302 6.42728 4.77968V3.97437C5.21055 4.31227 4.30621 5.54039 4.30621 7.00002C4.30621 8.45965 5.21055 9.68777 6.42728 10.0257V9.22036Z" fill="black"/>
<path d="M8.82656 8.24438C8.54286 8.7683 8.09022 9.14567 7.57272 9.28968V10.0731C8.49482 9.89702 9.29002 9.21166 9.66764 8.24438H8.82656Z" fill="black"/>
<path d="M7.57272 3.92725V4.70851C8.09384 4.85016 8.54388 5.22485 8.82796 5.75551H9.66783C9.2906 4.79066 8.49176 4.10428 7.57272 3.92725Z" fill="black"/>
<path d="M7.38181 3.43634H6.61816V10.5636H7.38181V3.43634Z" fill="black"/>
</svg>
