<svg width="24" height="24" viewBox="0 0 24 24" fill="none" xmlns="http://www.w3.org/2000/svg">
<path d="M10.5938 14.0625C10.9821 14.0625 11.2969 13.7477 11.2969 13.3594C11.2969 12.971 10.9821 12.6562 10.5938 12.6562C10.2054 12.6562 9.89062 12.971 9.89062 13.3594C9.89062 13.7477 10.2054 14.0625 10.5938 14.0625Z" fill="black"/>
<path d="M9.1875 16.875C9.57583 16.875 9.89062 16.5602 9.89062 16.1719C9.89062 15.7835 9.57583 15.4688 9.1875 15.4688C8.79917 15.4688 8.48438 15.7835 8.48438 16.1719C8.48438 16.5602 8.79917 16.875 9.1875 16.875Z" fill="black"/>
<path d="M16.2188 0C13.7213 0 11.6835 1.84988 11.3467 4.21875H9.20142L8.47073 0.565219C8.40502 0.236578 8.11641 0 7.78125 0H3.5625C3.17419 0 2.85938 0.314812 2.85938 0.703125C2.85938 1.09144 3.17419 1.40625 3.5625 1.40625H7.20483L7.76733 4.21875H4.26562C4.05727 4.21875 3.85964 4.31114 3.72605 4.47108C3.59245 4.63097 3.53667 4.84191 3.5737 5.04694L6.34458 20.3792L5.04295 22.9824C4.93397 23.2004 4.94564 23.4592 5.07375 23.6665C5.20186 23.8738 5.42817 24 5.67188 24H14.1094C14.353 24 14.5793 23.8738 14.7075 23.6665C14.8357 23.4592 14.8472 23.2004 14.7382 22.9824L13.4366 20.3792L15.3542 9.76837C15.6431 9.8175 15.9331 9.84281 16.2214 9.84277C18.9274 9.84272 21.1406 7.65206 21.1406 4.92188C21.1406 2.20172 18.9393 0 16.2188 0ZM5.10722 5.625H8.04858L8.8935 9.8497C8.68027 9.78455 8.49581 9.64805 8.36625 9.4537C7.95361 8.83477 7.2922 8.4487 6.55167 8.39447C6.23273 8.37113 5.92012 8.41041 5.62781 8.50561L5.10722 5.625ZM6.80958 22.5938L7.5127 21.1875H12.2686L12.9717 22.5938H6.80958ZM12.1157 19.7812H7.66556L5.88403 9.92344C6.0518 9.82739 6.24708 9.78225 6.44897 9.79697C6.62803 9.81009 6.96319 9.88425 7.19616 10.2338C7.64105 10.9011 8.38547 11.2995 9.18745 11.2995C9.98944 11.2995 10.7339 10.9011 11.1787 10.2338C11.3649 9.95442 11.6643 9.79425 12 9.79425C12.3357 9.79425 12.635 9.95442 12.8212 10.2337C13.0474 10.5731 13.3482 10.8427 13.6979 11.0261L12.1157 19.7812ZM14.1158 8.7135C14.1026 8.75967 14.0943 8.80608 14.0908 8.85234L13.9839 9.44344C13.5383 8.78245 12.7978 8.388 12 8.388C11.3032 8.388 10.65 8.68913 10.1988 9.20573L9.48267 5.625H14.674L14.1158 8.7135ZM16.2656 8.43675C16.0501 8.43923 15.8293 8.42255 15.6043 8.38495L16.2075 5.04698C16.2446 4.84195 16.1888 4.63102 16.0552 4.47113C15.9216 4.31114 15.724 4.21875 15.5156 4.21875H12.7733C13.0943 2.62898 14.502 1.40625 16.2188 1.40625C18.1617 1.40625 19.7344 2.97862 19.7344 4.92188C19.7344 6.80583 18.2257 8.41425 16.2656 8.43675Z" fill="black"/>
</svg>
