<svg width="349" height="96" viewBox="0 0 349 96" fill="none" xmlns="http://www.w3.org/2000/svg">
<path d="M20.2172 43.0194C13.2038 99.5566 -1.24969 100.866 -10.2884 91.8189L-13 89.0774V-48H349V16.4263L346.966 17.2488C344.797 18.1261 341.995 17.6143 340.865 17.2488C337.611 15.9329 335.894 16.3349 334.764 17.2488C334.086 17.7971 333.001 19.3324 331.375 19.9903C329.748 20.6483 327.985 20.2645 327.307 19.9903L323.24 18.3455C317.816 15.7136 313.749 17.2488 312.393 18.3455L304.258 26.5701C299.378 30.9566 292.463 29.0375 290.022 26.5701C287.311 23.8285 282.888 21.9095 270.363 21.9095C257.997 21.9095 245.77 27.744 242.914 33.7754C236.813 46.6607 223.696 39.2416 221.797 33.7754C216.769 19.3026 211.239 20.3736 210.736 20.3172C209.731 20.2045 199.675 19.979 188.614 43.0194C180.45 60.0251 169.347 45.9925 167.029 43.063L166.994 43.0194C163.805 38.9893 153.126 25.0358 150.575 21.9095C148.023 18.7831 145.516 20.3291 144.391 21.9095L141.019 27.7577C135.96 34.6181 129.214 30.2274 128.09 27.7577C122.709 22.2112 116.854 25.2508 114.599 27.4639L107.292 43.0194C106.355 44.1457 105.043 48.7584 100.547 47.2217C96.0497 45.685 94.9255 38.4405 93.8013 36.794C92.1149 34.3242 83.6832 22.25 76.9379 36.2451C67.8532 55.094 70.9868 48.375 69.4933 51.3061C63.3101 58.4409 55.4209 61.4051 48.3389 51.432C46.0986 48.2771 47.5088 49.417 44.3354 43.0194C37.028 28.2871 21.8509 33.7754 20.2172 43.0194Z" fill="#BC6FF1" fill-opacity="0.1"/>
</svg>
