<svg width="360" height="189" viewBox="0 0 360 189" fill="none" xmlns="http://www.w3.org/2000/svg">
<path d="M33.0337 118.843C30.3371 198.167 11.6854 194.372 2.69663 182.56L0 178.98V0H360V84.1207L357.978 85.1945C355.82 86.34 353.034 85.6718 351.91 85.1945C348.674 83.4763 346.966 84.0013 345.843 85.1945C345.169 85.9105 344.09 87.915 342.472 88.7741C340.854 89.6333 339.101 89.1321 338.427 88.7741L334.382 86.6264C328.989 83.19 324.944 85.1946 323.596 86.6264L315.506 97.3652C310.652 103.093 303.775 100.587 301.348 97.3652C298.652 93.7856 290.966 87.5571 281.798 91.2799C272.629 95.0027 264.34 106.276 261.5 114.151C255.433 130.975 236.895 121.31 235.5 114.151C231.455 93.389 227 92.9544 224.5 91.2799C213.322 83.7925 202.262 99.1104 192 118.843C180.542 140.875 172.728 122.538 170.5 118.843C167.328 113.581 165.208 95.362 162.671 91.2799C160.133 87.1979 157.64 89.2165 156.522 91.2799L153.168 106.773C148.137 115.731 141.429 109.998 140.311 106.773L137.516 98.5323C133.044 92.4412 128.571 96.1436 126.894 98.5323L119.627 118.843C118.696 120.314 117.391 126.336 112.919 124.33C108.447 122.323 107.329 112.864 106.211 110.714C104.534 107.49 96.1491 91.7246 89.441 109.998C80.4064 134.609 81.9876 146.544 79.9379 149.052C73.7888 158.368 66.2422 152.635 64.8447 149.052C63.0559 144.466 57.6558 127.196 54.5 118.843C47.2329 99.6072 34.6584 106.773 33.0337 118.843Z" fill="#BC6FF1" fill-opacity="0.1"/>
</svg>
