<svg width="360" height="11" viewBox="0 0 360 11" fill="none" xmlns="http://www.w3.org/2000/svg">
<path d="M33.0337 6.78744C30.3371 11.3178 11.6854 11.1011 2.69663 10.4265L0 10.222V0H360V4.80436L357.978 4.86569C355.82 4.93111 353.034 4.89295 351.91 4.86569C348.674 4.76756 346.966 4.79754 345.843 4.86569C345.169 4.90658 344.09 5.02107 342.472 5.07013C340.854 5.1192 339.101 5.09058 338.427 5.07013L334.382 4.94747C328.989 4.75121 324.944 4.86569 323.596 4.94747L315.506 5.56079C310.652 5.8879 303.775 5.74479 301.348 5.56079C298.652 5.35635 290.966 5.00062 281.798 5.21324C272.629 5.42586 264.34 6.06969 261.5 6.51945C255.433 7.48033 236.895 6.92834 235.5 6.51945C231.455 5.3337 227 5.30888 224.5 5.21324C213.322 4.78561 202.262 5.66046 192 6.78744C180.542 8.04575 172.728 6.99849 170.5 6.78744C167.328 6.48691 165.208 5.44638 162.671 5.21324C160.133 4.98011 157.64 5.09539 156.522 5.21324L153.168 6.0981C148.137 6.60969 141.429 6.28227 140.311 6.0981L137.516 5.62744C133.044 5.27956 128.571 5.49102 126.894 5.62744L119.627 6.78744C118.696 6.87143 117.391 7.21541 112.919 7.10081C108.447 6.98622 107.329 6.44598 106.211 6.3232C104.534 6.13903 96.1491 5.23864 89.441 6.28227C80.4064 7.68786 81.9876 8.36954 79.9379 8.51279C73.7888 9.04484 66.2422 8.71742 64.8447 8.51279C63.0559 8.25086 60.1745 7.26452 57.0186 6.78744C49.7516 5.68883 34.6584 6.0981 33.0337 6.78744Z" fill="#BC6FF1" fill-opacity="0.1"/>
</svg>
