<svg width="41" height="41" viewBox="0 0 41 41" fill="none" xmlns="http://www.w3.org/2000/svg">
<circle cx="20.5" cy="20.5" r="20.5" fill="#BC6FF1" fill-opacity="0.37"/>
<path d="M27 16C27 14.4087 26.3679 12.8826 25.2426 11.7574C24.1174 10.6321 22.5913 10 21 10C19.4087 10 17.8826 10.6321 16.7574 11.7574C15.6321 12.8826 15 14.4087 15 16C15 23 12 25 12 25H30C30 25 27 23 27 16Z" stroke="#8F4EBC" stroke-width="2" stroke-linecap="round" stroke-linejoin="round"/>
<path d="M22.73 29C22.5542 29.3031 22.3019 29.5547 21.9982 29.7295C21.6946 29.9044 21.3504 29.9965 21 29.9965C20.6496 29.9965 20.3054 29.9044 20.0018 29.7295C19.6982 29.5547 19.4458 29.3031 19.27 29" stroke="#8F4EBC" stroke-width="2" stroke-linecap="round" stroke-linejoin="round"/>
</svg>
