<svg width="24" height="24" viewBox="0 0 24 24" fill="none" xmlns="http://www.w3.org/2000/svg">
<g clip-path="url(#clip0)">
<path d="M8.65925 13.3618C8.48723 13.3618 8.34777 13.5006 8.34776 13.6717L8.34772 14.3141C8.34771 14.4853 8.48715 14.624 8.65917 14.624C8.83119 14.624 8.97065 14.4852 8.97066 14.314L8.9707 13.6717C8.97074 13.5005 8.83126 13.3618 8.65925 13.3618Z" fill="black"/>
<path d="M15.3776 14.624C15.5497 14.624 15.6891 14.4853 15.6891 14.3141L15.6891 13.6717C15.6891 13.5005 15.5497 13.3618 15.3777 13.3618C15.2056 13.3618 15.0662 13.5005 15.0662 13.6717L15.0662 14.3141C15.0661 14.4852 15.2056 14.624 15.3776 14.624Z" fill="black"/>
<path d="M11.3676 14.0917C11.2546 13.9628 11.0579 13.9493 10.9282 14.0617C10.7985 14.1742 10.785 14.3699 10.898 14.499C11.4897 15.1747 12.5454 15.1767 13.1388 14.499C13.2518 14.3699 13.2384 14.1743 13.1087 14.0617C12.979 13.9492 12.7823 13.9627 12.6692 14.0917C12.505 14.2793 12.2677 14.3869 12.0184 14.3869C11.7691 14.3869 11.532 14.2794 11.3676 14.0917Z" fill="black"/>
<path d="M23.5518 15.4389C23.4162 15.2287 23.1158 14.6597 23.2522 13.9197C23.4464 12.9537 23.0642 11.8257 22.0923 11.1525C21.887 11.01 21.3921 10.5992 21.2323 9.86351C21.185 9.62806 21.0813 9.3426 20.9341 9.08447C20.8493 8.93565 20.6591 8.8834 20.5095 8.96788C20.3599 9.05236 20.3075 9.24153 20.3924 9.39041C20.5171 9.60906 20.5723 9.78345 20.6232 9.99322C20.7772 10.7023 21.2053 11.2944 21.7525 11.6728C22.4425 12.1469 22.7909 12.9835 22.6401 13.8049C22.5103 14.5085 22.6713 15.2284 23.0376 15.79C23.4905 16.4892 23.4905 17.3929 23.0374 18.0926L23.0317 18.1014C22.9192 18.2759 22.7328 18.3801 22.5329 18.3801L21.1343 18.3801C21.1863 18.0059 21.2153 17.6279 21.221 17.251L22.23 17.251C22.402 17.251 22.5414 17.1123 22.5414 16.9411C22.5415 16.77 22.402 16.6312 22.23 16.6312L21.2098 16.6312C21.1579 15.6274 20.944 14.6537 20.5812 13.7395L21.5755 13.3296C21.7345 13.2641 21.81 13.0828 21.7441 12.9246C21.6783 12.7665 21.4961 12.6914 21.3371 12.7569L20.3329 13.1709C19.9124 12.2926 19.3484 11.4791 18.653 10.7591L19.4539 9.96211C19.5755 9.84107 19.5755 9.64483 19.4539 9.5238C19.3323 9.40277 19.135 9.4028 19.0134 9.5238L18.2069 10.3264C17.4713 9.65886 16.6448 9.12191 15.7563 8.72743L16.2048 7.64987C16.2707 7.49173 16.1952 7.31039 16.0362 7.24491C15.8773 7.17939 15.6952 7.25449 15.6293 7.41266L15.1788 8.49475C14.2691 8.1631 13.3039 7.97524 12.3115 7.94269L12.3115 6.76149C12.3115 6.59032 12.1721 6.45155 12 6.45155C11.828 6.45155 11.6886 6.59032 11.6886 6.76149L11.6886 7.94269C10.6962 7.97525 9.73097 8.16314 8.82123 8.49476L8.37078 7.41267C8.30495 7.25447 8.12274 7.1794 7.96382 7.24492C7.8049 7.31043 7.72941 7.49174 7.79524 7.64988L8.24378 8.72744C7.35522 9.12192 6.52879 9.65887 5.79318 10.3264L4.98663 9.52382C4.865 9.40279 4.66779 9.40279 4.54617 9.52382C4.42454 9.64485 4.42454 9.8411 4.54617 9.96213L5.34705 10.7591C4.6517 11.4791 4.08764 12.2927 3.6672 13.1709L2.66294 12.757C2.50402 12.6915 2.32185 12.7666 2.25598 12.9247C2.19038 13.0823 2.26511 13.2639 2.42456 13.3297L3.41895 13.7396C3.05613 14.6538 2.84224 15.6275 2.79026 16.6312L1.77011 16.6313C1.4918 16.6313 1.35543 16.9669 1.54985 17.1604C1.6062 17.2164 1.68408 17.2512 1.77008 17.2511L2.77904 17.2511C2.78471 17.628 2.81366 18.006 2.86575 18.3802L1.46713 18.3802C1.12554 18.3802 0.969288 18.1005 0.965119 18.0966L0.9623 18.0922C0.509474 17.393 0.509446 16.4894 0.962215 15.7903C1.00609 15.674 1.58204 15.0331 1.33282 13.6566C1.19123 12.8817 1.55212 12.0887 2.23085 11.6835C2.6524 11.4318 3.19212 10.9403 3.36901 10.0279C3.52314 9.22499 4.16217 8.54415 5.01418 8.36108C5.0382 8.35051 6.05453 8.21355 6.7085 7.23235C7.16764 6.54702 7.99058 6.19892 8.80517 6.34551C8.83007 6.34504 9.83504 6.60218 10.8432 5.95764C11.5459 5.50718 12.4539 5.50717 13.1565 5.95752L13.1614 5.96061C13.7608 6.34483 14.4828 6.47358 15.1515 6.35328C15.9709 6.20425 16.809 6.54674 17.2868 7.22582C17.298 7.23643 17.8489 8.11973 18.9839 8.36062C19.2174 8.41071 19.4395 8.49886 19.644 8.62267C19.7909 8.71165 19.9825 8.66522 20.0719 8.519C20.1613 8.37275 20.1147 8.18209 19.9677 8.09314C19.6862 7.92264 19.4089 7.81902 19.0978 7.75053C18.8554 7.69732 18.2454 7.50762 17.8157 6.8968L17.7971 6.87036C17.2145 6.04213 16.1706 5.5434 15.0223 5.74619C14.1291 5.90442 13.5121 5.44146 13.4939 5.4364C12.628 4.88133 11.4634 4.82508 10.4907 5.44576C10.2801 5.58014 9.70977 5.87828 8.96433 5.7441L8.91599 5.73539C7.9063 5.55367 6.82619 5.94853 6.18091 6.90161C5.68172 7.63925 4.89196 7.74991 4.8828 7.75505C3.77594 7.99291 2.95826 8.87449 2.75738 9.91032C2.65029 10.4625 2.36531 10.8802 1.91034 11.1519C1.01358 11.6873 0.512799 12.7512 0.730182 13.825C0.850956 14.421 0.753905 14.9676 0.441733 15.4496L0.43865 15.4544C-0.146288 16.3576 -0.146232 17.5248 0.438909 18.4282C0.443872 18.4351 0.504304 18.5372 0.613657 18.6461C0.839791 18.8711 1.14412 19 1.46713 19L7.39508 19C7.56709 19 7.70655 18.8612 7.70655 18.69C7.70655 18.5196 7.5678 18.3801 7.39508 18.3801L3.49474 18.3801C3.10572 15.776 3.91706 13.0555 5.91921 11.0631C9.25435 7.74432 14.6966 7.69554 18.0808 11.0631C20.0369 13.0096 20.9042 15.7098 20.5053 18.3801L8.64101 18.3801C8.46902 18.3801 8.32954 18.5189 8.32954 18.69C8.32954 18.8612 8.46899 19 8.64101 19C9.80213 19 21.9672 19 22.5329 19C22.946 19 23.3285 18.7891 23.556 18.4362L23.5613 18.4279C24.1447 17.527 24.1462 16.3636 23.5659 15.4613C23.5612 15.4535 23.5565 15.4462 23.5518 15.4389ZM1.33664 13.6841C1.33785 13.6948 1.33782 13.7032 1.33788 13.7089C1.33782 13.7006 1.33741 13.6923 1.33664 13.6841Z" fill="black"/>
</g>
<defs>
<clipPath id="clip0">
<rect width="24" height="24" fill="white"/>
</clipPath>
</defs>
</svg>
