<svg width="24" height="24" viewBox="0 0 24 24" fill="none" xmlns="http://www.w3.org/2000/svg">
<path fill-rule="evenodd" clip-rule="evenodd" d="M20.3181 11.2727C21.5733 11.2727 22.5909 12.2902 22.5909 13.5454C22.5909 14.8006 21.5733 15.8182 20.3181 15.8182V11.2727ZM3.27267 15.8182C2.01748 15.8182 0.999943 14.8006 0.999943 13.5454C0.999943 12.2902 2.01748 11.2727 3.27267 11.2727L3.27267 15.8182Z" fill="black"/>
<rect x="-0.5" y="0.5" width="16.0455" height="8.09091" rx="1.5" transform="matrix(-1 0 0 1 19.3181 9)" stroke="black"/>
<path d="M16.3409 12.4092C15.9621 12.5986 15.0909 12.8637 14.6363 12.4092C14.1818 11.9546 13.3106 12.2198 12.9318 12.4092C12.3636 12.5986 11.1136 12.8637 10.6591 12.4092C10.2045 11.9546 8.95452 12.2198 8.38634 12.4092C8.19694 12.5986 7.59088 12.9774 6.68179 12.9774" stroke="black" stroke-width="0.5" stroke-linecap="round" stroke-linejoin="round"/>
<path d="M14.6363 13.8936C14.369 14.1563 13.754 14.5241 13.4331 13.8936C13.1123 13.263 12.4973 13.6308 12.2299 13.8936C11.8289 14.1563 10.9465 14.5242 10.6256 13.8936C10.3048 13.263 9.42243 13.6308 9.02136 13.8936C8.88767 14.1563 8.45987 14.6818 7.81815 14.6818" stroke="black" stroke-width="0.5" stroke-linecap="round" stroke-linejoin="round"/>
</svg>
