<svg width="14" height="14" viewBox="0 0 14 14" fill="none" xmlns="http://www.w3.org/2000/svg">
<path d="M12.7695 0H1.23047C0.552002 0 0 0.552002 0 1.23047V12.7695C0 13.448 0.552002 14 1.23047 14H12.7695C13.448 14 14 13.448 14 12.7695V1.23047C14 0.552002 13.448 0 12.7695 0ZM13.1797 12.7695C13.1797 12.9957 12.9957 13.1797 12.7695 13.1797H1.23047C1.00435 13.1797 0.820312 12.9957 0.820312 12.7695V1.23047C0.820312 1.00435 1.00435 0.820312 1.23047 0.820312H12.7695C12.9957 0.820312 13.1797 1.00435 13.1797 1.23047V12.7695Z" fill="black"/>
<path d="M11.7305 3.27174C10.3554 2.24048 8.71957 1.69531 7.00001 1.69531C5.28045 1.69531 3.64463 2.24048 2.26954 3.27174C2.18249 3.33711 2.12492 3.43431 2.10954 3.54208C2.09426 3.64986 2.12235 3.75934 2.18772 3.84639L4.3529 6.72688C4.43354 6.83412 4.55659 6.89062 4.68113 6.89062C4.76669 6.89062 4.8531 6.86392 4.9269 6.80859C5.52954 6.35667 6.24635 6.11774 7.00001 6.11774C7.75357 6.11774 8.47048 6.35667 9.07311 6.80859C9.25416 6.94446 9.51104 6.90782 9.64701 6.72688L11.8122 3.84639C11.8777 3.75934 11.9058 3.64986 11.8904 3.54208C11.8751 3.43442 11.8175 3.33711 11.7305 3.27174ZM9.22596 5.92184C8.67268 5.58325 8.05616 5.37817 7.41017 5.31708V4.06696C7.41017 3.84041 7.22656 3.6568 7.00001 3.6568C6.77346 3.6568 6.58985 3.84041 6.58985 4.06696V5.31708C5.94386 5.37817 5.32734 5.58325 4.77406 5.92184L3.09722 3.69098C4.25602 2.92076 5.59693 2.51562 7.00001 2.51562C8.40309 2.51562 9.744 2.92076 10.9028 3.69098L9.22596 5.92184Z" fill="black"/>
</svg>
